<svg width="69" height="16" viewBox="0 0 69 16" fill="none" xmlns="http://www.w3.org/2000/svg">
<path d="M8.02 10.74L9.6 9.04L14.48 13.68L12.9 15.38L8.02 10.74ZM7.6 15.28C6.26667 15.28 5.08 14.98 4.04 14.38C3 13.7733 2.18333 12.9267 1.59 11.84C0.996667 10.7467 0.7 9.46667 0.7 8C0.7 6.53333 0.996667 5.25667 1.59 4.17C2.18333 3.07667 3 2.23 4.04 1.63C5.08 1.02333 6.26667 0.719999 7.6 0.719999C8.93333 0.719999 10.12 1.02333 11.16 1.63C12.2 2.23 13.0167 3.07667 13.61 4.17C14.2033 5.25667 14.5 6.53333 14.5 8C14.5 9.46667 14.2033 10.7467 13.61 11.84C13.0167 12.9267 12.2 13.7733 11.16 14.38C10.12 14.98 8.93333 15.28 7.6 15.28ZM7.6 12.8C8.53333 12.8 9.31333 12.5933 9.94 12.18C10.5667 11.7667 11.0367 11.2 11.35 10.48C11.6633 9.75333 11.82 8.92667 11.82 8C11.82 7.07333 11.6633 6.25 11.35 5.53C11.0367 4.80333 10.5667 4.23333 9.94 3.82C9.31333 3.40667 8.53333 3.2 7.6 3.2C6.66667 3.2 5.88667 3.40667 5.26 3.82C4.63333 4.23333 4.16333 4.80333 3.85 5.53C3.53667 6.25 3.38 7.07333 3.38 8C3.38 8.92667 3.53667 9.75333 3.85 10.48C4.16333 11.2 4.63333 11.7667 5.26 12.18C5.88667 12.5933 6.66667 12.8 7.6 12.8ZM20.3977 15.2C19.3577 15.2 18.5277 14.9933 17.9077 14.58C17.2877 14.1667 16.841 13.6 16.5677 12.88C16.2943 12.1533 16.1577 11.32 16.1577 10.38V5H18.6377V10.38C18.6377 11.3067 18.791 11.9967 19.0977 12.45C19.411 12.8967 19.9177 13.12 20.6177 13.12C21.1777 13.12 21.641 12.9867 22.0077 12.72C22.381 12.4533 22.691 12.08 22.9377 11.6L22.4977 12.86V5H24.9777V15H22.6577L22.5377 13.26L23.0777 13.96C22.8377 14.2667 22.4577 14.55 21.9377 14.81C21.4243 15.07 20.911 15.2 20.3977 15.2ZM27.2928 15V5H29.6128L29.6728 6.06C29.9261 5.78 30.2828 5.5 30.7428 5.22C31.2028 4.94 31.7061 4.8 32.2528 4.8C32.4128 4.8 32.5595 4.81333 32.6928 4.84L32.5128 7.28C32.3661 7.24 32.2195 7.21333 32.0728 7.2C31.9328 7.18667 31.7928 7.18 31.6528 7.18C31.2328 7.18 30.8495 7.27667 30.5028 7.47C30.1561 7.66333 29.9128 7.9 29.7728 8.18V15H27.2928ZM35.9372 15.2C35.4039 15.2 34.9172 15.0833 34.4772 14.85C34.0372 14.61 33.6872 14.2667 33.4272 13.82C33.1672 13.3733 33.0372 12.8333 33.0372 12.2C33.0372 11.6333 33.1672 11.15 33.4272 10.75C33.6939 10.3433 34.0405 10.0067 34.4672 9.74C34.9005 9.46667 35.3672 9.25333 35.8672 9.1C36.3739 8.94 36.8705 8.82333 37.3572 8.75C37.8505 8.67667 38.2839 8.63333 38.6572 8.62C38.6305 8.04667 38.4839 7.63 38.2172 7.37C37.9505 7.11 37.4972 6.98 36.8572 6.98C36.4105 6.98 35.9739 7.04333 35.5472 7.17C35.1272 7.29 34.6505 7.48 34.1172 7.74L33.8972 5.72C34.4972 5.42667 35.0972 5.20667 35.6972 5.06C36.3039 4.91333 36.9172 4.84 37.5372 4.84C38.2839 4.84 38.9272 4.97333 39.4672 5.24C40.0072 5.50667 40.4239 5.93667 40.7172 6.53C41.0105 7.11667 41.1572 7.89333 41.1572 8.86V11.56C41.1572 12.06 41.1805 12.4233 41.2272 12.65C41.2739 12.87 41.3605 13.01 41.4872 13.07C41.6139 13.13 41.7972 13.16 42.0372 13.16H42.3572L42.1372 15.2H41.2372C40.8639 15.2 40.5305 15.15 40.2372 15.05C39.9505 14.9567 39.7039 14.8233 39.4972 14.65C39.2905 14.4767 39.1239 14.2733 38.9972 14.04C38.6705 14.4067 38.2272 14.6933 37.6672 14.9C37.1139 15.1 36.5372 15.2 35.9372 15.2ZM36.9772 13.3C37.1972 13.3 37.4705 13.2433 37.7972 13.13C38.1239 13.01 38.4172 12.8267 38.6772 12.58V10.3C38.2105 10.32 37.7439 10.3967 37.2772 10.53C36.8105 10.6633 36.4205 10.86 36.1072 11.12C35.7939 11.38 35.6372 11.7067 35.6372 12.1C35.6372 12.5067 35.7439 12.81 35.9572 13.01C36.1705 13.2033 36.5105 13.3 36.9772 13.3ZM43.7381 15V5H46.0581L46.1581 6.86L45.5781 6.1C45.9581 5.78 46.4115 5.49 46.9381 5.23C47.4648 4.97 48.0781 4.84 48.7781 4.84C50.0581 4.84 51.0081 5.26667 51.6281 6.12C52.2481 6.96667 52.5581 8.06667 52.5581 9.42V15H50.0781V9.62C50.0781 8.68667 49.9215 7.99667 49.6081 7.55C49.3015 7.10333 48.7981 6.88 48.0981 6.88C47.5315 6.88 47.0681 7.02 46.7081 7.3C46.3481 7.57333 46.0315 7.94 45.7581 8.4L46.2181 7.18V15H43.7381Z" fill="#00A961"/>
<path d="M54.1653 15V13.368H55.7253V15H54.1653ZM59.7534 15.12C59.0654 15.12 58.4874 14.98 58.0194 14.7C57.5554 14.416 57.2034 14.04 56.9634 13.572C56.7274 13.1 56.6094 12.58 56.6094 12.012C56.6094 11.44 56.7274 10.918 56.9634 10.446C57.1994 9.97 57.5534 9.59 58.0254 9.306C58.4974 9.022 59.0894 8.88 59.8014 8.88C60.1374 8.88 60.4414 8.918 60.7134 8.994C60.9854 9.066 61.2174 9.156 61.4094 9.264L61.2894 10.464C61.1054 10.368 60.8974 10.288 60.6654 10.224C60.4374 10.16 60.1974 10.128 59.9454 10.128C59.3694 10.128 58.9234 10.302 58.6074 10.65C58.2914 10.998 58.1334 11.452 58.1334 12.012C58.1334 12.544 58.2954 12.992 58.6194 13.356C58.9434 13.716 59.3814 13.896 59.9334 13.896C60.1694 13.896 60.4014 13.862 60.6294 13.794C60.8614 13.722 61.0854 13.624 61.3014 13.5L61.4334 14.76C61.2254 14.868 60.9734 14.954 60.6774 15.018C60.3854 15.086 60.0774 15.12 59.7534 15.12ZM65.1075 15.12C64.4555 15.12 63.8995 14.978 63.4395 14.694C62.9795 14.41 62.6275 14.032 62.3835 13.56C62.1435 13.088 62.0235 12.572 62.0235 12.012C62.0235 11.448 62.1435 10.928 62.3835 10.452C62.6275 9.976 62.9795 9.596 63.4395 9.312C63.8995 9.024 64.4555 8.88 65.1075 8.88C65.7595 8.88 66.3155 9.024 66.7755 9.312C67.2355 9.596 67.5855 9.976 67.8255 10.452C68.0695 10.928 68.1915 11.448 68.1915 12.012C68.1915 12.572 68.0695 13.088 67.8255 13.56C67.5855 14.032 67.2355 14.41 66.7755 14.694C66.3155 14.978 65.7595 15.12 65.1075 15.12ZM65.1075 13.896C65.6075 13.896 65.9915 13.722 66.2595 13.374C66.5315 13.022 66.6675 12.568 66.6675 12.012C66.6675 11.448 66.5315 10.99 66.2595 10.638C65.9915 10.282 65.6075 10.104 65.1075 10.104C64.6115 10.104 64.2275 10.282 63.9555 10.638C63.6835 10.99 63.5475 11.448 63.5475 12.012C63.5475 12.568 63.6835 13.022 63.9555 13.374C64.2275 13.722 64.6115 13.896 65.1075 13.896Z" fill="#E1EAEE"/>
</svg>
